<mxfile host="app.diagrams.net" agent="Mozilla/5.0 (Windows NT 10.0; Win64; x64) AppleWebKit/537.36 (KHTML, like Gecko) Chrome/131.0.0.0 Safari/537.36" version="25.0.3">
  <diagram name="Page-1" id="MupoGuI8WBYDmdXWChmo">
    <mxGraphModel dx="1500" dy="746" grid="1" gridSize="10" guides="1" tooltips="1" connect="1" arrows="1" fold="1" page="1" pageScale="1" pageWidth="827" pageHeight="1169" math="0" shadow="0">
      <root>
        <mxCell id="0" />
        <mxCell id="1" parent="0" />
        <mxCell id="HmUKr9aJAmwQDNDql8R2-1" value="" style="edgeStyle=orthogonalEdgeStyle;rounded=0;orthogonalLoop=1;jettySize=auto;html=1;" edge="1" parent="1" source="HmUKr9aJAmwQDNDql8R2-2" target="HmUKr9aJAmwQDNDql8R2-4">
          <mxGeometry relative="1" as="geometry" />
        </mxCell>
        <mxCell id="HmUKr9aJAmwQDNDql8R2-2" value="start" style="ellipse;whiteSpace=wrap;html=1;" vertex="1" parent="1">
          <mxGeometry x="200" y="29" width="130" height="40" as="geometry" />
        </mxCell>
        <mxCell id="HmUKr9aJAmwQDNDql8R2-3" value="" style="edgeStyle=orthogonalEdgeStyle;rounded=0;orthogonalLoop=1;jettySize=auto;html=1;" edge="1" parent="1" source="HmUKr9aJAmwQDNDql8R2-4" target="HmUKr9aJAmwQDNDql8R2-7">
          <mxGeometry relative="1" as="geometry" />
        </mxCell>
        <mxCell id="HmUKr9aJAmwQDNDql8R2-4" value="รับค่า year" style="shape=parallelogram;perimeter=parallelogramPerimeter;whiteSpace=wrap;html=1;fixedSize=1;" vertex="1" parent="1">
          <mxGeometry x="205" y="109" width="120" height="50" as="geometry" />
        </mxCell>
        <mxCell id="HmUKr9aJAmwQDNDql8R2-6" style="edgeStyle=orthogonalEdgeStyle;rounded=0;orthogonalLoop=1;jettySize=auto;html=1;exitX=0.5;exitY=1;exitDx=0;exitDy=0;entryX=0.5;entryY=0;entryDx=0;entryDy=0;" edge="1" parent="1" source="HmUKr9aJAmwQDNDql8R2-7" target="HmUKr9aJAmwQDNDql8R2-11">
          <mxGeometry relative="1" as="geometry" />
        </mxCell>
        <mxCell id="HmUKr9aJAmwQDNDql8R2-20" style="edgeStyle=orthogonalEdgeStyle;rounded=0;orthogonalLoop=1;jettySize=auto;html=1;exitX=1;exitY=0.5;exitDx=0;exitDy=0;entryX=0;entryY=0.5;entryDx=0;entryDy=0;" edge="1" parent="1" source="HmUKr9aJAmwQDNDql8R2-7" target="HmUKr9aJAmwQDNDql8R2-9">
          <mxGeometry relative="1" as="geometry" />
        </mxCell>
        <mxCell id="HmUKr9aJAmwQDNDql8R2-7" value="year % 4 == 0 และ year % 100 != 0 และ year % 400 == 0&amp;nbsp;" style="rhombus;whiteSpace=wrap;html=1;" vertex="1" parent="1">
          <mxGeometry x="80" y="189" width="370" height="80" as="geometry" />
        </mxCell>
        <mxCell id="HmUKr9aJAmwQDNDql8R2-8" style="edgeStyle=orthogonalEdgeStyle;rounded=0;orthogonalLoop=1;jettySize=auto;html=1;exitX=0.5;exitY=1;exitDx=0;exitDy=0;entryX=1;entryY=0.5;entryDx=0;entryDy=0;" edge="1" parent="1" source="HmUKr9aJAmwQDNDql8R2-9" target="HmUKr9aJAmwQDNDql8R2-15">
          <mxGeometry relative="1" as="geometry" />
        </mxCell>
        <mxCell id="HmUKr9aJAmwQDNDql8R2-9" value="February has 29 days" style="shape=parallelogram;perimeter=parallelogramPerimeter;whiteSpace=wrap;html=1;fixedSize=1;" vertex="1" parent="1">
          <mxGeometry x="590" y="204" width="180" height="50" as="geometry" />
        </mxCell>
        <mxCell id="HmUKr9aJAmwQDNDql8R2-10" value="" style="edgeStyle=orthogonalEdgeStyle;rounded=0;orthogonalLoop=1;jettySize=auto;html=1;" edge="1" parent="1" source="HmUKr9aJAmwQDNDql8R2-11" target="HmUKr9aJAmwQDNDql8R2-15">
          <mxGeometry relative="1" as="geometry" />
        </mxCell>
        <mxCell id="HmUKr9aJAmwQDNDql8R2-11" value="February has 28 days" style="shape=parallelogram;perimeter=parallelogramPerimeter;whiteSpace=wrap;html=1;fixedSize=1;" vertex="1" parent="1">
          <mxGeometry x="175" y="319" width="180" height="50" as="geometry" />
        </mxCell>
        <mxCell id="HmUKr9aJAmwQDNDql8R2-13" value="เท็จ" style="text;html=1;align=center;verticalAlign=middle;whiteSpace=wrap;rounded=0;" vertex="1" parent="1">
          <mxGeometry x="254" y="279" width="60" height="30" as="geometry" />
        </mxCell>
        <mxCell id="HmUKr9aJAmwQDNDql8R2-14" value="" style="edgeStyle=orthogonalEdgeStyle;rounded=0;orthogonalLoop=1;jettySize=auto;html=1;" edge="1" parent="1" source="HmUKr9aJAmwQDNDql8R2-15" target="HmUKr9aJAmwQDNDql8R2-16">
          <mxGeometry relative="1" as="geometry" />
        </mxCell>
        <mxCell id="HmUKr9aJAmwQDNDql8R2-15" value="" style="ellipse;whiteSpace=wrap;html=1;aspect=fixed;" vertex="1" parent="1">
          <mxGeometry x="245" y="439" width="40" height="40" as="geometry" />
        </mxCell>
        <mxCell id="HmUKr9aJAmwQDNDql8R2-16" value="end" style="ellipse;whiteSpace=wrap;html=1;" vertex="1" parent="1">
          <mxGeometry x="200" y="544" width="130" height="40" as="geometry" />
        </mxCell>
        <mxCell id="HmUKr9aJAmwQDNDql8R2-12" value="จริง" style="text;html=1;align=center;verticalAlign=middle;whiteSpace=wrap;rounded=0;" vertex="1" parent="1">
          <mxGeometry x="430" y="199" width="60" height="30" as="geometry" />
        </mxCell>
      </root>
    </mxGraphModel>
  </diagram>
</mxfile>
